<?xml version="1.0" encoding="UTF-8" standalone="no"?>
<!-- Created with Inkscape (http://www.inkscape.org/) -->

<svg
   xmlns:dc="http://purl.org/dc/elements/1.1/"
   xmlns:cc="http://creativecommons.org/ns#"
   xmlns:rdf="http://www.w3.org/1999/02/22-rdf-syntax-ns#"
   xmlns:svg="http://www.w3.org/2000/svg"
   xmlns="http://www.w3.org/2000/svg"
   xmlns:sodipodi="http://sodipodi.sourceforge.net/DTD/sodipodi-0.dtd"
   xmlns:inkscape="http://www.inkscape.org/namespaces/inkscape"
   width="210mm"
   height="297mm"
   viewBox="0 0 210 297"
   version="1.1"
   id="svg8"
   inkscape:version="0.92.3 (2405546, 2018-03-11)"
   sodipodi:docname="SRCULENCE.svg">
  <defs
     id="defs2">
    <inkscape:path-effect
       effect="skeletal"
       id="path-effect1120"
       is_visible="true"
       pattern="m -143.95993,22.639805 0.20046,0.384202"
       copytype="single_stretched"
       prop_scale="0.26458333"
       scale_y_rel="false"
       spacing="0"
       normal_offset="0"
       tang_offset="0"
       prop_units="false"
       vertical_pattern="false"
       fuse_tolerance="0" />
    <inkscape:path-effect
       effect="spiro"
       id="path-effect1112"
       is_visible="true" />
    <inkscape:path-effect
       effect="skeletal"
       id="path-effect1106"
       is_visible="true"
       pattern="m -138.32466,41.896955 0.20046,0.384202"
       copytype="single_stretched"
       prop_scale="0.26458333"
       scale_y_rel="false"
       spacing="0"
       normal_offset="0"
       tang_offset="0"
       prop_units="false"
       vertical_pattern="false"
       fuse_tolerance="0" />
    <inkscape:path-effect
       effect="skeletal"
       id="path-effect965"
       is_visible="true"
       pattern="m -138.59571,41.969272 0.20046,0.384202"
       copytype="single_stretched"
       prop_scale="-1.0854733e-005"
       scale_y_rel="false"
       spacing="0"
       normal_offset="0"
       tang_offset="0"
       prop_units="false"
       vertical_pattern="false"
       fuse_tolerance="0" />
    <inkscape:path-effect
       effect="skeletal"
       id="path-effect949"
       is_visible="true"
       pattern="m -138.45397,42.016517 0.20046,0.384202"
       copytype="single_stretched"
       prop_scale="0.26458333"
       scale_y_rel="false"
       spacing="0"
       normal_offset="0"
       tang_offset="0"
       prop_units="false"
       vertical_pattern="false"
       fuse_tolerance="0" />
    <inkscape:path-effect
       effect="spiro"
       id="path-effect941"
       is_visible="true" />
    <inkscape:path-effect
       effect="skeletal"
       id="path-effect937"
       is_visible="true"
       pattern="m 12.828806,138.71894 0.20046,0.3842"
       copytype="single_stretched"
       prop_scale="0.26458333"
       scale_y_rel="false"
       spacing="0"
       normal_offset="0"
       tang_offset="0"
       prop_units="false"
       vertical_pattern="false"
       fuse_tolerance="0" />
    <inkscape:path-effect
       effect="spiro"
       id="path-effect929"
       is_visible="true" />
    <inkscape:path-effect
       effect="skeletal"
       id="path-effect925"
       is_visible="true"
       pattern="m -138.45397,42.016517 0.20046,0.384202"
       copytype="single_stretched"
       prop_scale="0.26458333"
       scale_y_rel="false"
       spacing="0"
       normal_offset="0"
       tang_offset="0"
       prop_units="false"
       vertical_pattern="false"
       fuse_tolerance="0" />
    <inkscape:path-effect
       effect="skeletal"
       id="path-effect915"
       is_visible="true"
       pattern="m 20.194947,140.41206 0.20046,0.3842"
       copytype="single_stretched"
       prop_scale="0.26458333"
       scale_y_rel="false"
       spacing="0"
       normal_offset="0"
       tang_offset="0"
       prop_units="false"
       vertical_pattern="false"
       fuse_tolerance="0" />
    <inkscape:path-effect
       effect="spiro"
       id="path-effect907"
       is_visible="true" />
    <inkscape:path-effect
       fuse_tolerance="0"
       vertical_pattern="false"
       prop_units="false"
       tang_offset="0"
       normal_offset="0"
       spacing="0"
       scale_y_rel="false"
       prop_scale="0.26458333"
       copytype="single_stretched"
       pattern="m -116.67151,60.725384 0.20046,0.384202"
       is_visible="true"
       id="path-effect903"
       effect="skeletal" />
    <inkscape:path-effect
       effect="skeletal"
       id="path-effect899"
       is_visible="true"
       pattern="m -128.29773,68.4762 0.20046,0.384202"
       copytype="single_stretched"
       prop_scale="0.26458333"
       scale_y_rel="false"
       spacing="0"
       normal_offset="0"
       tang_offset="0"
       prop_units="false"
       vertical_pattern="false"
       fuse_tolerance="0" />
    <inkscape:path-effect
       fuse_tolerance="0"
       vertical_pattern="false"
       prop_units="false"
       tang_offset="0"
       normal_offset="0"
       spacing="0"
       scale_y_rel="false"
       prop_scale="0.26458333"
       copytype="single_stretched"
       pattern="m -126.96138,37.3393 0.20046,0.384202"
       is_visible="true"
       id="path-effect895"
       effect="skeletal" />
    <inkscape:path-effect
       effect="skeletal"
       id="path-effect889"
       is_visible="true"
       pattern="m -138.45397,42.016517 0.20046,0.384202"
       copytype="single_stretched"
       prop_scale="0.26458333"
       scale_y_rel="false"
       spacing="0"
       normal_offset="0"
       tang_offset="0"
       prop_units="false"
       vertical_pattern="false"
       fuse_tolerance="0" />
    <inkscape:path-effect
       fuse_tolerance="0"
       vertical_pattern="false"
       prop_units="false"
       tang_offset="0"
       normal_offset="0"
       spacing="0"
       scale_y_rel="false"
       prop_scale="0.26458333"
       copytype="single_stretched"
       pattern="m -138.45397,42.016517 0.20046,0.384202"
       is_visible="true"
       id="path-effect885"
       effect="skeletal" />
    <inkscape:path-effect
       effect="skeletal"
       id="path-effect881"
       is_visible="true"
       pattern="m -138.45397,42.016517 0.20046,0.384202"
       copytype="single_stretched"
       prop_scale="0.26458333"
       scale_y_rel="false"
       spacing="0"
       normal_offset="0"
       tang_offset="0"
       prop_units="false"
       vertical_pattern="false"
       fuse_tolerance="0" />
    <inkscape:path-effect
       fuse_tolerance="0"
       vertical_pattern="false"
       prop_units="false"
       tang_offset="0"
       normal_offset="0"
       spacing="0"
       scale_y_rel="false"
       prop_scale="0.26458333"
       copytype="single_stretched"
       pattern="m -138.45397,49.767334 0.20046,0.384202"
       is_visible="true"
       id="path-effect871"
       effect="skeletal" />
    <inkscape:path-effect
       effect="skeletal"
       id="path-effect867"
       is_visible="true"
       pattern="m -139.36561,42.370944 0.20046,0.384202"
       copytype="single_stretched"
       prop_scale="0.26458333"
       scale_y_rel="false"
       spacing="0"
       normal_offset="0"
       tang_offset="0"
       prop_units="false"
       vertical_pattern="false"
       fuse_tolerance="0" />
    <inkscape:path-effect
       effect="spiro"
       id="path-effect817"
       is_visible="true" />
  </defs>
  <sodipodi:namedview
     id="base"
     pagecolor="#ffffff"
     bordercolor="#666666"
     borderopacity="1.0"
     inkscape:pageopacity="0.0"
     inkscape:pageshadow="2"
     inkscape:zoom="0.7"
     inkscape:cx="349.81908"
     inkscape:cy="542.58846"
     inkscape:document-units="mm"
     inkscape:current-layer="layer1"
     showgrid="false"
     showborder="true"
     inkscape:window-width="1920"
     inkscape:window-height="1028"
     inkscape:window-x="-8"
     inkscape:window-y="-8"
     inkscape:window-maximized="1" />
  <metadata
     id="metadata5">
    <rdf:RDF>
      <cc:Work
         rdf:about="">
        <dc:format>image/svg+xml</dc:format>
        <dc:type
           rdf:resource="http://purl.org/dc/dcmitype/StillImage" />
        <dc:title></dc:title>
      </cc:Work>
    </rdf:RDF>
  </metadata>
  <g
     inkscape:label="Layer 1"
     inkscape:groupmode="layer"
     id="layer1">
    <path
       style="fill:#000000;stroke:none;stroke-width:0.26458332px;stroke-linecap:butt;stroke-linejoin:miter;stroke-opacity:1"
       d="m -513.7081,97.568714 4.84301,-1.507182"
       id="path939"
       inkscape:connector-curvature="0"
       inkscape:path-effect="#path-effect941;#path-effect949"
       inkscape:original-d="m -513.69203,97.616932 c 1.60388,-0.534805 3.20749,-1.069342 4.81087,-1.603618" />
    <g
       id="g2992"
       transform="matrix(0.75946513,0,0,0.75862386,272.9872,102.24748)"
       style="stroke-width:1.31744599">
      <path
         inkscape:connector-curvature="0"
         id="path830"
         d="m -321.27975,128.42262 216.95832,-98.27381 3.77976,6.80357 -216.20238,98.27381 z"
         style="fill:#808080;stroke:#000000;stroke-width:2.63489199;stroke-linecap:butt;stroke-linejoin:miter;stroke-opacity:1" />
      <path
         inkscape:original-d="m -218.84821,34.68452 c -9.82765,5.7959 -11.08704,-5.039943 -16.63095,-7.55952 -5.54392,-2.519577 -18.64656,-3.024074 -27.97025,-4.535715 -9.32367,-1.511638 -16.12672,4.535451 -24.19048,6.803573 -8.06373,2.268122 -3.02352,15.622752 -4.5357,23.434522 -1.51217,7.81177 32.7582,54.42831 49.1369,81.64285 16.37871,27.21456 16.12725,3.52752 24.19048,5.29167 8.06323,1.76416 36.28598,-34.77407 54.42857,-52.16071 18.14259,-17.38664 -1.00767,-34.27011 -1.51191,-51.40476 -0.50423,-17.134658 -15.62275,-12.599474 -23.43452,-18.898811 -7.81177,-6.299339 -28.22196,9.071165 -42.33333,13.607142"
         inkscape:path-effect="#path-effect817"
         inkscape:connector-curvature="0"
         id="path815"
         d="m -218.84821,34.68452 c -5.22301,-3.157844 -10.81744,-5.700768 -16.63095,-7.55952 -9.02301,-2.884927 -18.50697,-4.106868 -27.97025,-4.535715 -4.33098,-0.196267 -8.71361,-0.225056 -12.94978,0.697307 -4.23617,0.922363 -8.35576,2.870058 -11.2407,6.106266 -2.72988,3.062272 -4.19311,7.094967 -4.74206,11.160483 -0.54895,4.065517 -0.24156,8.196156 0.20636,12.274039 1.81326,16.507908 5.99598,32.929059 14.01701,47.47079 8.02103,14.54173 20.07558,27.13873 35.11989,34.17206 7.54947,3.52943 15.86386,5.63645 24.19048,5.29167 13.38683,-0.55431 26.00948,-7.49907 35.19398,-17.25404 9.1845,-9.75496 15.19376,-22.13224 19.23459,-34.90667 2.66055,-8.410895 4.53344,-17.14058 4.59317,-25.962038 0.0597,-8.821458 -1.76036,-17.765153 -6.10508,-25.442722 -5.06429,-8.949115 -13.5901,-15.928774 -23.43452,-18.898811 -7.54572,-2.276525 -15.78266,-2.202454 -23.28622,0.209405 -7.50356,2.411858 -14.24102,7.150986 -19.04711,13.397737"
         style="fill:#ff0000;stroke:#000000;stroke-width:5.26978397;stroke-linecap:butt;stroke-linejoin:miter;stroke-opacity:1" />
      <path
         sodipodi:nodetypes="ccccc"
         inkscape:connector-curvature="0"
         id="path832"
         d="m -306.16072,120.86309 -20.78868,3.60422 -19.72749,19.83031 31.44474,-3.53936 14.69383,-12.85535"
         style="fill:#808080;stroke:#000000;stroke-width:2.63489199;stroke-linecap:butt;stroke-linejoin:miter;stroke-opacity:1" />
      <path
         inkscape:connector-curvature="0"
         id="path834"
         d="m -138.33928,42.244047 c -0.50371,-6.047883 -1.00768,-12.095502 -1.51191,-18.142857 -0.50423,-6.047354 10.5836,-5.543915 15.875,-8.315476 5.2914,-2.771561 14.11138,-5.543915 21.16667,-8.3154759 7.055289,-2.771561 -1.51191,22.6785719 -1.51191,22.6785719 l 18.898813,16.630951 -39.309523,24.190476 -6.80357,-19.654761"
         style="fill:#b3b3b3;stroke:#000000;stroke-width:2.63489199;stroke-linecap:butt;stroke-linejoin:miter;stroke-opacity:1" />
      <path
         inkscape:connector-curvature="0"
         id="path836"
         d="m -138.33928,42.244047 0.52684,3.01259"
         style="fill:none;stroke:#000000;stroke-width:2.63489199;stroke-linecap:butt;stroke-linejoin:miter;stroke-opacity:1" />
      <path
         inkscape:original-d="m -137.78918,45.299075 33.44449,-15.192703"
         inkscape:path-effect="#path-effect867"
         inkscape:connector-curvature="0"
         id="path859"
         d="m -137.8102,45.252799 33.48653,-15.100151"
         style="fill:#000000;stroke:#000000;stroke-width:2.63489175;stroke-linecap:butt;stroke-linejoin:miter;stroke-opacity:1" />
      <path
         style="fill:#000000;stroke:#000000;stroke-width:2.63489175;stroke-linecap:butt;stroke-linejoin:miter;stroke-opacity:1"
         d="m -131.5386,51.308763 29.94209,-18.80529"
         id="path869"
         inkscape:connector-curvature="0"
         inkscape:path-effect="#path-effect871"
         inkscape:original-d="m -131.51144,51.351727 29.88777,-18.891218" />
      <path
         inkscape:original-d="m -130.02381,19.943452 1.51191,21.166667"
         inkscape:path-effect="#path-effect881"
         inkscape:connector-curvature="0"
         id="path873"
         d="m -129.97311,19.939831 1.41051,21.173909"
         style="fill:#000000;stroke:#000000;stroke-width:2.63489199;stroke-linecap:butt;stroke-linejoin:miter;stroke-opacity:1" />
      <path
         style="fill:#000000;stroke:#000000;stroke-width:2.63489199;stroke-linecap:butt;stroke-linejoin:miter;stroke-opacity:1"
         d="m -129.97311,19.939831 1.41051,21.173909"
         id="path883"
         inkscape:connector-curvature="0"
         inkscape:path-effect="#path-effect885"
         inkscape:original-d="m -130.02381,19.943452 1.51191,21.166667" />
      <path
         inkscape:original-d="m -130.02381,16.976983 1.51191,24.15964"
         inkscape:path-effect="#path-effect889"
         inkscape:connector-curvature="0"
         id="path887"
         d="m -129.97308,16.973808 1.41045,24.16599"
         style="fill:#000000;stroke:#000000;stroke-width:2.63489199;stroke-linecap:butt;stroke-linejoin:miter;stroke-opacity:1" />
      <path
         style="fill:#000000;stroke:#000000;stroke-width:2.63489199;stroke-linecap:butt;stroke-linejoin:miter;stroke-opacity:1"
         d="m -118.48049,12.296591 1.41045,24.16599"
         id="path893"
         inkscape:connector-curvature="0"
         inkscape:path-effect="#path-effect895"
         inkscape:original-d="m -118.53122,12.299766 1.51191,24.15964" />
      <path
         inkscape:original-d="m -125.72369,47.993198 14.42686,15.714748"
         inkscape:path-effect="#path-effect899"
         inkscape:connector-curvature="0"
         id="path897"
         d="m -125.68625,47.958825 14.35198,15.783494"
         style="fill:#000000;stroke:#000000;stroke-width:2.63489199;stroke-linecap:butt;stroke-linejoin:miter;stroke-opacity:1" />
      <path
         style="fill:#000000;stroke:#000000;stroke-width:2.63489199;stroke-linecap:butt;stroke-linejoin:miter;stroke-opacity:1"
         d="m -114.06003,40.208009 14.351983,15.783494"
         id="path901"
         inkscape:connector-curvature="0"
         inkscape:path-effect="#path-effect903"
         inkscape:original-d="M -114.09747,40.242382 -99.670606,55.95713" />
      <path
         inkscape:original-d="M -385.39123,-31.256504 Z"
         inkscape:path-effect="#path-effect925"
         inkscape:connector-curvature="0"
         id="path917"
         d="M -385.39123,-31.256504 Z"
         style="fill:#000000;stroke:none;stroke-width:0.34857425px;stroke-linecap:butt;stroke-linejoin:miter;stroke-opacity:1" />
      <path
         sodipodi:nodetypes="ccccccccccccsssccccccsscc"
         inkscape:connector-curvature="0"
         id="path969"
         d="m -264.57506,43.50277 c -8.45292,-0.0039 -15.41792,1.145503 -23.03374,3.801319 -2.15844,0.752697 -5.55495,1.898779 -7.54735,2.546614 l -3.62251,1.177706 c -1.86291,0.244911 -3.72719,0.494011 -5.59345,0.747757 1.20248,1.41455 2.40286,2.830158 3.60185,4.246769 -2.6357,3.475384 -5.26568,6.953242 -7.89048,10.432957 3.71596,-0.403997 7.4364,-0.799581 11.16211,-1.186492 l 0.65198,-0.102439 c 0.0501,0.21812 -0.68961,0.06207 -0.65198,0.102439 0.13372,0.143494 1.69407,-0.449112 3.36518,-1.136883 5.80586,-2.389552 13.18733,-4.215333 20.50002,-5.07049 3.12383,-0.365303 5.72725,-0.442974 10.62778,-0.318326 13.24887,0.336989 21.89932,2.313178 47.99862,10.965222 16.20165,5.37092 18.23624,6.005965 23.69778,7.400065 9.33495,2.382822 20.61884,4.045217 32.75356,4.825545 v 5.29e-4 c 1.90938,0.122791 3.56504,0.148855 3.67884,0.05839 0.25302,-0.201099 -0.36367,-3.302286 -0.13227,-6.726367 0.0624,-2.137225 1.07292,-4.41116 1.28363,-6.618036 l -3.69796,-0.0036 c -8.88037,-0.0075 -20.48811,-1.614033 -30.56558,-4.230751 -6.31489,-1.639726 -13.25805,-3.95106 -26.4144,-8.793779 -26.18638,-9.638932 -36.42353,-12.111823 -50.17162,-12.118123 z"
         style="opacity:1;fill:#e3dedb;fill-opacity:1;stroke:#000000;stroke-width:1.97616899;stroke-opacity:1" />
      <path
         sodipodi:nodetypes="ccsccscccsssssc"
         inkscape:original-d="m -283.95532,89.696997 c -3.80058,-0.835184 -4.93172,0.719765 -7.59921,1.698318 -3.69659,1.33735 -9.47722,2.972308 -12.58706,4.055815 -5.89297,2.053178 -6.95614,3.358819 -10.43465,5.03851 -3.47849,1.67969 8.16305,4.63003 12.24411,6.94532 4.08106,2.3153 32.66773,-9.731769 49.00113,-14.597364 16.33341,-4.865609 115.37952,25.589784 115.37952,25.589784 l -15.1392,-3.12415 2.35527,12.11916 c 0,0 -22.40703,-15.73095 -33.61098,-23.59613 -11.20398,-7.865181 -30.33119,-0.99874 -45.49721,-1.49783 -15.16605,-0.49908 -42.09101,12.01011 -63.13697,18.01546 -21.04595,6.00533 -20.04103,-16.81809 -34.56016,-25.705527 -14.51914,-8.887444 17.25239,-9.240743 30.93784,-12.195393 13.68544,-2.954657 6.33781,-0.09772 8.9447,-1.33303"
         inkscape:path-effect="#path-effect1112;#path-effect1120"
         inkscape:connector-curvature="0"
         id="path1110"
         d="m -283.94864,89.747383 c -2.57346,0.340714 -5.11689,0.908589 -7.59096,1.694864 -4.20194,1.33559 -8.23477,3.307886 -12.59412,4.054782 -2.02713,0.347162 -4.10768,0.425379 -6.04938,1.064015 0,10e-7 -10e-6,3e-6 -10e-6,4e-6 -0.97072,0.319186 -1.90333,0.780221 -2.68046,1.439156 0,3e-6 0,6e-6 -1e-5,8e-6 -0.77674,0.658703 -1.39538,1.523609 -1.67023,2.501368 -0.37808,1.33918 -0.0787,2.8297 0.67104,4.00581 0.75035,1.17731 1.9251,2.05441 3.22045,2.58374 10e-6,0 10e-6,0 2e-5,0 1.2959,0.52947 2.71183,0.72583 4.11494,0.72516 1.40326,-8.1e-4 2.80066,-0.19477 4.18867,-0.42145 8.40285,-1.37284 16.55915,-3.95584 24.61788,-6.71396 0,0 0,0 10e-6,0 8.08132,-2.765997 16.11301,-5.722543 24.38217,-7.872605 19.77643,-5.141838 40.78021,-5.259939 60.72615,-0.831906 1e-5,2e-6 1e-5,4e-6 1e-5,6e-6 19.94345,4.433196 38.92157,13.429075 54.66218,26.451575 -5.04631,-1.04096 -10.0928,-2.08222 -15.13947,-3.12379 0.78453,4.03925 1.56931,8.07865 2.35434,12.1182 -8.54471,-10.94985 -20.40933,-19.28318 -33.6083,-23.60425 -14.58751,-4.77334 -30.47815,-4.643174 -45.50354,-1.5072 -1e-5,0 -2e-5,10e-6 -2e-5,10e-6 -10.73961,2.24142 -21.10337,5.96059 -31.48377,9.50581 -10.35554,3.53657 -20.82686,6.93228 -31.65399,8.49628 -4.36198,0.63005 -8.78998,0.96081 -13.17568,0.55008 -10e-6,0 -2e-5,0 -2e-5,-1e-5 -4.38538,-0.41077 -8.74183,-1.58381 -12.54016,-3.80854 -3.79742,-2.22422 -7.01797,-5.54509 -8.75025,-9.58746 -1.73141,-4.04005 -1.88594,-8.820414 -0.0515,-12.811204 0,-8e-6 0,-1.6e-5 1e-5,-2.3e-5 1.21375,-2.642528 3.24206,-4.870746 5.62595,-6.539768 2.38429,-1.66924 5.11864,-2.798126 7.93329,-3.548454 5.62953,-1.500931 11.5357,-1.508518 17.34528,-2.075898 3.00315,-0.293158 5.99152,-0.737896 8.94995,-1.331963"
         style="fill:#ffffff;fill-opacity:1;stroke:#000000;stroke-width:2.63489199;stroke-linecap:butt;stroke-linejoin:miter;stroke-opacity:1" />
      <rect
         transform="matrix(0.91745651,-0.39783609,0.45238069,0.89182494,0,0)"
         ry="1.0758634"
         rx="2.8128438"
         y="-8.2802429"
         x="-358.14319"
         height="4.5546207"
         width="19.153988"
         id="rect1122"
         style="opacity:1;fill:#666666;fill-opacity:1;stroke:none;stroke-width:2.63728809;stroke-opacity:1" />
    </g>
  </g>
</svg>
